<?xml version="1.0" encoding="UTF-8"?>
<svg id="Layer_1" data-name="Layer 1" xmlns="http://www.w3.org/2000/svg" viewBox="0 0 652.19 650">
  <defs>
    <style>
      .cls-1 {
        fill: #ffe45c;
      }

      .cls-2 {
        fill: #ff9c39;
      }
    </style>
  </defs>
  <path class="cls-1" d="M453.73,465.96c-1.65-11.21-8.21-14.35-16.95-19.44-2.51-1.47-6.06-1.52-8.39-3.49-5.54-4.69-20.85-5.06-38.66-.71-14.7,1.97-24.91,14.88-40.48,12.99-21.07-2.54-46.8-22.29-58.78-39.22-5.09-7.19-12.19-28.05-23.08-25.86-6.24,11.32,2.07,30.27,8.27,40.66,13.99,23.42,53.95,50.41,82.17,47.11,11.48-1.34,26.15-13.23,38.66-16.28,20.21-4.92,38.24-2.84,43.8,19.83-7.47,7.74-15.7-.49-24.56-.73-5.38-.13-9.18,1.9-14.11,3.1-1.14,1.47,8.66,11.96,10.13,14.36,3.82,6.22,10.66,17.75,2.29,22.55-5.96,1.08-20.07-20.08-34.66-13.87-2.39,1.03-6.13,7.57-8.17,7.72-.77.06-11.04-3.67-14.9-4.01-12.92-1.17-24.74.31-38.36-1.74-43.54-6.59-81.48-41.47-95.67-82.55-3.19-9.27-8.55-42.21-14.63-46.26-13.02-8.67-11.45,22.05-10.8,28.62,3.13,31.2,21.8,66.49,45.07,87.11,10.81,9.58,23.78,15.15,33.46,25.19l-158.93-2.2c-3.61-2.84-4.1-7.57-4.49-11.85-11.79-127.62,81.28-382.63,232.43-391.46,71.93-4.2,138.58,30.13,166.93,97.54,20.9,49.72,13.35,100.74-52.9,82.61-40.59-11.11-69.64-37.32-114.55-12.85-34.99,19.07-74.52,100.78-20.63,118.32,27.46,8.94,42.06-4.87,65.93-7.68,9.43-1.11,19.81.65,29.36-.34,30.74-3.21,41.24-27.56,46.56-54.43.7-3.52-.27-7.62,1.14-10.72,2.54-5.58,8.33-1.68,10.4,2.95,6.3,14.08-.25,61.89-2.45,79.26-1.57,12.39-3.96,38.27-7.57,48.86-1.47,4.35-8.36,8.05-12.88,6.89ZM364.16,135.21c-11.2.7-45.51,26.15-33.15,37,4.83,4.23,20.29-15.62,26.2-18.59,4.25-2.14,11.05-2.14,13.92-5.38,5.41-6.1.54-13.47-6.96-13.01h0ZM417.96,149.72c6.09.73,34.37,16.16,37.01,7.99.52-15.77-34.26-25.99-37.01-7.99ZM462.01,185.9c-24.58-23.36-35.05,43.1-10.29,48.25,20.81,4.32,23.14-36.03,10.29-48.25ZM368.53,184.19c-14.52,4.37-13.86,46.72,2.54,53.29,18.15,7.26,22.96-22.46,19.78-34.66-2.24-8.63-12.25-21.65-22.34-18.62h.01Z"/>
  <path class="cls-2" d="M346.28,331.3c30.15-5.21,62.81,31.69,23.67,47.43-13.25,5.33-39.27,9.49-48.54-3.98-10.54-15.31,8.57-40.63,24.86-43.46Z"/>
</svg>