<?xml version="1.0" encoding="UTF-8"?>
<svg id="Layer_1" data-name="Layer 1" xmlns="http://www.w3.org/2000/svg" viewBox="0 0 652.19 877.93">
  <defs>
    <style>
      .cls-1 {
        fill: #ff5050;
      }

      .cls-2 {
        fill: #0d68a9;
      }

      .cls-3 {
        fill: #ffe45c;
      }

      .cls-4 {
        fill: #ff9c39;
      }

      .cls-5 {
        fill: #09527f;
      }
    </style>
  </defs>
  <path class="cls-5" d="M531.13,330.36s-2.61,15.76-46.97,20.99c-1.52-6.75-2.42-13.69-3.99-20.48-.22-.97-.46-1.94-.71-2.9-1.91-7.22-5.14-14.29-6.75-21.59,13.31,4.87,29.36,9.96,42.26,15.6,5.31,2.31,10.64,6.33,16.17,8.38Z"/>
  <g>
    <path class="cls-4" d="M482.89,350.03c-1.71-6.71-2.47-13.68-3.99-20.48-.22-.97-.46-1.94-.71-2.9-1.91-7.22-5.14-14.29-6.75-21.59-17.04-6.23-34.5-12.38-52.12-18.01-76.47-24.43-155-46.11-236.62-51.94-.06.08-.13.16-.19.24-12.26,9.58-24.91,20.2-41.32,35.03-4.06,3.67-8.36,7.6-12.93,11.84-17.62,16.34-36.29,32.65-50.64,51.19-2.76,3.55-5.45,7.15-8.09,10.77-8.35,11.44-16.23,25.19-11.24,38.02,4.98,12.75,20.89,19.57,35.92,22.64,38.68,7.9,106.02,2.57,143.26-5.72,39.78-8.86,58.15-15.53,99.27-17.26,24.75-1.04,38.41.68,38.45,25.46.03,18.8-11.76,42.2-28.62,54.14-15.65,11.1-37.58,9.69-55.19,3.22-16.17-5.94-28.67-16.89-42.74-25.71-14.45-5.62-31.12-5.52-47.5-5.08,1.2,2.83,2.37,5.66,3.58,8.49,1.42,3.32,5.24,8.75,5.24,12.31,3.05,6.97,5.45,14.22,8.28,21.25,5.84.04,14.42-1.24,16.67,4.94,2.74,7.52-2.76,13.53-7.5,19.05v32.97c5.1,7.79,11.02,16.09,3.44,24.49-4.51,5-10.77,3.28-17.19,3.49,0,0-4.58,25.98-4.59,25.99.5-2.84,28.6,4.47,31.11,5.18,9.09,2.54,17.95,5.7,26.49,9.43,8.34,3.65,14.24,8.54,21.37,13.71,8.48,6.15,16.47,13.2,25.64,18.57,14.63,8.57,35.12,10.76,52.15,7.37,31.77-6.33,47.23-34.65,56.47-59.3,2.72-7.25,4.72-14.73,5.67-22.32.51-4.05.72-8.13.58-12.21-.11-3.21-1.84-7.15-1.19-10.22.86-4.11,6.87-5.57,9.77-2.61,6.85,2.86,6.81,11.8,5.56,19.29.16,10.28-1.77,24.87-3.26,32.32-8.75,43.33-36.46,69.88-86.33,72.6-61.16,3.33-41.03-6.66-68.81-27.01-19.88-14.57-37.14-27.35-65.55-31.77-20.27-3.15-47.84,4.33-41.8,26.49,1.28.83,16.59-4.85,20.39-5.3,6.8-.8,26.94.16,25.52,9.17-.95,6.06-15.1,2.21-21.1,2.69-12.39,1-39.22,9.19-29.83,23.78,6.97,10.81,15.23,3.88,24.26,2.33,4.76-.81,38.36-3.51,29.04,6.34-2.28,2.4-19.07,3.12-24.39,4.72-2.09.63-9.78,4.08-11.19,5.23-3.2,2.6-3.22,11.99-1.51,15.2,1.65,3.09,15.55,8.18,19.25,8.31,6.89.25,9.72-9.45,21.46-7.83,1.89.26,6.48,2.58,7.72,2.75,4.04.57,10.14,3.6,14.65,4.71,61.04,15.13,130.96,11.64,185.2-20.57,27.99-16.63,35.94-29.73,46.74-57.17,2.08-5.26,1.33-14.1,9.85-14.08,7.4,1.62,4.54,24.63,3.05,29.13-26.63,80.43-143.46,93.55-224.23,80.69-9.57-1.52-18.87-4.09-28.39-5.72,1.83,5.82,5.79,16.33,3.82,21.83-2.79,7.76-16.49,10.11-22.4,2.88-2.55-3.11-9.52-21.67-10.07-25.71-6.08.01-14.93-.16-20.61-2-4.57,15.79-19.4,33.05,8.75,36.83,8.87,1.2,16.7.04,25.01.11,94.04.78,189.86,2.85,283.17-.84,5.77-.23,32.24-1.24,38.34-2.25,0,0,12.37-80.17-66.53-391.6ZM215.97,341.62c-5.03-1.19-5.32-15.98-10.79-23.57-1.03-1.42-2.24-2.59-3.69-3.37-2.48-1.32-5.67-1.52-9.88.09-8.93,3.39-10.84,18.84-14.93,21.7-2.23,1.57-7.08,1.85-9.45.43-5.39-3.22-1.82-13.57.34-17.94,8.15-16.45,24.7-23.23,38.41-18.6,4.86,1.64,9.36,4.72,12.99,9.31,2.29,2.88,4.24,6.35,5.73,10.44,2.53,6.99,5.59,24.93-8.73,21.51ZM309.2,343.59c-.82-3.35-1.26-7.91-2.34-12.27-1.52-6.17-4.32-11.97-11.32-13.48-.5-.11-1.03-.19-1.59-.26-20.94-2.34-21.03,23.97-28.35,27.06-5.18,2.19-12-.34-12.41-5.47-.92-11.74,15.61-33.41,29.17-36.15,10.14-2.06,18.78-.47,25.59,3.43,4.7,2.68,8.52,6.46,11.39,10.89,4.8,7.45,6.87,16.77,5.72,25.85-1.29,10.2-13.84,8.61-15.87.41Z"/>
    <path class="cls-2" d="M529.86,329.04c-5.53-2.05-10.86-6.07-16.17-8.38-12.9-5.64-28.95-10.73-42.26-15.6-17.04-6.23-34.5-12.38-52.12-18.01-76.47-24.43-155-46.11-236.62-51.94.44-3.44-8.23-3.46-11.08-3.83-16.97-2.24-55.37-6.71-70.16-.57-4.7,1.95-6.74,3.91-6.99,8.39-1.3-1.92-3.91-3.63-4.51-6.55-1.58-7.73.99-12.6,8.71-16.27,19.89-9.44,76.92-13.57,100.06-12.15,18.76,1.15,39.02,4.65,58.44,4.99l46.97,6c-.13,2.44,1.51,2.68,3.63,3.33,8.09,2.48,20.74,4.64,29.59,6.66,52.95,12.09,89.42,25.3,138.64,43.97,3.78,1.44,28.58,16.79,33.13,20.57,23.46,19.55,18.45,38.55,20.72,39.39Z"/>
    <path class="cls-2" d="M458.82,181.15c-3.1-11.01-10.42-35.29-20.59-42.5-8.17-5.8-9.09-.75-6.83,5.96,2.24,6.69,10.36,24.73,14.6,30.23,1.64,2.13,4.43,4.87,7.18,5.76,2.35.76,4.31.21,5.65.55,2.89,10.26,4.03,25.43,6.87,33.98-2.84-.11-6.71-2.27-9.03-3.62-16.45-9.57-30.35-16.75-48.81-23.38-15.55-5.59-33.24-11.26-49.86-12.98-.61-6.15-4.07-10.55-10.67-13.18-10.82-4.31-49.36-12.98-61.07-13.77-10.02-.68-17.14,5.94-21.07,12.96h-35.52c56.34-71.1,134.64-155.94,229.74-65.97,13.21,12.5,57.48,60.97,60.06,75.52,1.4,7.91-1.32,13.64-10.44,15.76-14.09,3.26-36.29-1.82-50.21-5.32Z"/>
    <path class="cls-1" d="M227.38,532.9c5.1,7.79,11.02,16.09,3.44,24.49-4.51,5-10.77,3.28-17.19,3.49-.1-1.18-14.34-12.18-17.19-12.99-1.28-3.45-5.65-6.3-9.55-7.25-9.75-2.4-12.41,10.13-13.37,16.25l-14.08,12.2c-7.78,2.54-14.86,3.16-18.07-4.65-4.74-11.54-1.14-25.52-1.14-37.49-8.68-2.1-25.41-5.35-31.98-10.58-3.26-2.6-3.04-9.79-1.47-13.19,3.67-7.95,30.99-11.29,39.35-15.64,3.46-9.87-1.59-45.25,18.49-42.4,11.12,1.58,19.44,23.74,24.89,31.34,9.63,1.32,18.87-.6,28.67-.54,5.84.04,14.42-1.24,16.67,4.94,2.74,7.52-2.76,13.53-7.5,19.05-.1.11-1.86-.02-2.77,1.04-.85.98-6.68,8.49-6.91,8.99-2.76,5.91,3.46,15.66,6.89,20.93.75,1.14,2.61,1.74,2.8,2.01Z"/>
    <path class="cls-3" d="M465.7,215.12c4.31,12.93,8.23,27.18,8.73,41.3.07,2.09-1.13,4.58-.81,7.23.19,1.57,3.99,2.09,2.39,5.43-49.23-18.68-85.7-31.88-138.64-43.97v-2c1.09.3,4.95,1,5.74.57,7.5-13.49,16.39-33.41,14.89-48.54,16.62,1.71,34.31,7.39,49.86,12.98,18.47,6.64,32.36,13.81,48.81,23.38,2.32,1.35,6.19,3.5,9.03,3.62Z"/>
    <path class="cls-5" d="M182.69,235.11c-.06.08-.13.16-.19.24-12.26,9.58-24.91,20.2-41.32,35.03-6.47-2.82-12.74-6.01-18.65-9.27-11.53-6.35-21.14-11.79-28.06-22.01.25-4.48,2.29-6.44,6.99-8.39,14.79-6.14,53.19-1.67,70.16.57,2.84.37,11.51.39,11.08,3.83Z"/>
    <path class="cls-3" d="M265.19,161.16c-3.16,5.64-7.8,16.89-9.71,23.01-.97,3.09-5.65,22.66-4.04,23.96l5.73,1c-19.42-.34-39.68-3.85-58.43-5,7.7-13.63,17.17-27.27,27-39.91,1.18-1.52,3.47-2.47,3.93-3.06h35.52Z"/>
    <path class="cls-3" d="M196.44,547.9c1.73,4.66,2.16,11.34,3.56,16.38,2.08,7.54,4.01,15.21,6.76,22.59-.26.09-1.22,1.99-3.39,2.52-5.76,1.41-15.54,2.43-20.67,4.48l-9.17-36.97c.97-6.11,3.62-18.65,13.38-16.25,3.89.96,8.26,3.8,9.54,7.25Z"/>
    <path class="cls-3" d="M231.96,693.8c1.37-.05,3.34-.18,4.58,0,3.15,5.39,5.04,11.15,6.87,16.99,1.83,5.82,5.79,16.32,3.82,21.82-2.78,7.76-16.49,10.11-22.4,2.88-2.54-3.11-9.51-21.67-10.06-25.7-1.62-11.9,4.23-15.47,17.19-15.99Z"/>
    <path class="cls-1" d="M358,175.15c1.5,15.13-7.39,35.05-14.89,48.54-.79.42-4.64-.27-5.74-.57-.41-.11-1.44-1.36-3.1-1.75-10.01-2.37-21.92-3.95-30.13-6.24l-46.98-6-5.73-1c-1.61-1.3,3.07-20.87,4.04-23.96,1.91-6.12,6.55-17.37,9.71-23.01,3.94-7.02,11.05-13.64,21.07-12.96,11.71.79,50.25,9.46,61.07,13.77,6.6,2.63,10.06,7.03,10.67,13.18ZM336.23,175.15l-48.15-10.56-13.69,33.49,49.57,8.89c1.24-.27,1.78-1.07,2.46-1.91,1.92-2.37,11.09-28.82,9.81-29.91Z"/>
    <path class="cls-1" d="M356.09,427.73c2.28,3.48-11.61,18.23-15.28,20.78-9.73,6.77-27.26,8.82-38.9,4.99-7.4-2.43-3.57-7.13-.04-10.97,8.09-8.82,31.53-18.24,44.39-17.72,1.84.08,9.1,1.79,9.83,2.91Z"/>
    <path class="cls-3" d="M336.23,175.15c1.28,1.09-7.89,27.54-9.81,29.91-.68.84-1.22,1.64-2.46,1.91l-49.57-8.89,13.69-33.49,48.15,10.56Z"/>
  </g>
</svg>