<?xml version="1.0" encoding="UTF-8"?>
<svg id="Layer_1" data-name="Layer 1" xmlns="http://www.w3.org/2000/svg" viewBox="0 0 652.19 902.48">
  <defs>
    <style>
      .cls-1 {
        fill: #f17418;
      }

      .cls-2 {
        fill: #fcd749;
      }

      .cls-3 {
        fill: #0d68a9;
      }

      .cls-4 {
        fill: #215d0d;
      }

      .cls-5 {
        fill: #ff9c39;
      }
    </style>
  </defs>
  <path class="cls-3" d="M321.1,651.94c-11.71-3.96-27.67-19.14-40.49-15.94-6.28,1.57-5.66,10.57-3.73,14.76,9.24,20.1,44.01,44.17,70.49,37.28,3.88-1.01,7.6-2.61,11.63-2.95,9.67-.81,20.83,4.83,29.79,7.63,11.55,3.61,22.9,7.57,34.89,10.06,21.26,4.42,43.27,6.52,65.13,4.99,19.25-1.35,38.95-5.83,53.5-16.68,9.46-7.06,16.22-16.44,21.09-26.33,15.53-31.58,6.52-61.25.63-93.47-8.8-48.14-11.1-97.04-15.24-145.87-4.83-56.95-9.28-120.19-53.81-166.38-37.18-38.56-97.2-66.65-156.72-65.96-46.89.54-182.07,36.92-216.52,102.26-17.39,32.99-17.49,62.86,29.57,77.28,21.23,6.51,39.91,9.37,41.93,10.82.39.28.66.57.85.88,4.95.5,9.79,1.71,14.59,2.97,16.88,1.27,33.65,4.87,50.64,5.64,28.89,1.31,57.37-2.68,85.03-9.27,30.88-7.36,75.62-29.42,98.03,2.75,23.5,33.73-19.99,86.86-49.78,108.43-50.23,36.37-122.18,30.18-164.88-11.95-22.4-22.1-28.63-48.55-27.26-76.19-3.34-.88-6.51-1.64-8.93-1.89.13.02-.19.02-.67.02-11.46,50.59-31.2,98.16-50.25,147.01-12.66,32.45-24.81,65-31.78,98.8-.58.39-1.47.08-2.14.14,1.44,1.7,1.18,3.25.9,5.19-3.12,21.39-8.73,42.68-10.24,64.28-.76,10.89-2.22,26.38,13.53,29.39,143.72,2.04,288.09,1.28,431.8.39,1.12-2.28,5.31-2.83,6.12-4.06,1.49-2.27-.16-4.31.03-5.63.1-.69,1.93-.48,2.23-1.33,2.22-6.14-1.69-26.64-1.79-32.7-5.33,5.13-14.15,8.67-21.61,11.02-31.15,9.78-70.67,7.92-102.6,1.68-25.91-5.06-43.31-19.88-68.87-14.66-51.34,10.48-96.96-27.57-96.32-62.01.2-10.86,7.79-14.81,16.18-21.18-7.09-16.06,1.33-31,22.53-30.78,1.94-6.34.22-9.84,5.29-15.47,16.69-18.54,61.33,3.29,76.52,15.39,15.83,12.62,27.56,50.38,50.02,58.78,12.98,4.85,48.34,13.23,59.87,4.84,11-8,23.75-30.77-5.52-84.34-3.71-6.79,11.98-14.55,19.32-4.29,4.75,6.65,10.67,15.39,19.34,47.88,8.07,30.25-6.15,58.98-46.22,60.93-18.43.9-39.62-3.25-56.59-9.36-30.43-10.96-50.57-73.89-84.94-81.2-10.68-2.27-28.1-4.75-21.08,10.02,2.72,5.72,37.97,18.99,30.19,28.3-4.26,5.1-23.25-8.89-27.95-11.23-7.34-3.64-29.45-12.98-28.78,1.58.45,9.74,16.18,15.23,23.87,20.6,3.54,2.48,16.94,13.01,17.66,15.96,1.53,6.29-4.04,4.66-8.47,3.17ZM262.92,322.99c-11.16-.58-6.88-14.67-7.99-21.22-.49-2.89-4.61-11.76-7.04-13.46-8.35-5.85-20.22,4.24-24.74,9.76-5.3,6.47-7.66,19.03-19.71,16.71-12.88-2.48-1.18-21.11,3.33-26.7,18.13-22.45,52.37-28.89,64.25,1.94,3.02,7.84,7.45,33.77-8.1,32.97ZM387.06,334.78c-8.62-1.62-5.85-11.64-6.97-17.05-5.72-27.68-27.84-33.18-45.56-8.42-2.57,3.58-6.89,14.6-9.46,16.39-4.21,2.93-13.23,2.07-14.63-3.42-2.24-8.83,7.77-23.63,14.36-30.27,23.09-23.29,56.88-21.68,69.65,8.47,3.38,7.97,11.16,37.81-7.39,34.31Z"/>
  <path class="cls-1" d="M487.96,180.09l7.02,78.95c-37.18-38.56-97.22-64.38-156.72-65.96-.37-2.51,2.56-2.99,3.51-4,10.78-1.19,20.92-6.19,31.32-8.71,23.68-5.75,51.11-8.49,75.74-7.32,14.12.67,25.66,4.02,39.13,7.04Z"/>
  <path class="cls-2" d="M482.12,138.12c2.03,13.93,5.53,27.77,5.85,41.97-13.47-3.02-25.01-6.37-39.13-7.04-24.63-1.17-52.05,1.57-75.74,7.32-10.41,2.52-20.54,7.52-31.32,8.71,9.73-10.3,21.64-19.92,32.18-29.97,4.99-4.76,10.71-13.54,16.94-16,13.15-5.2,49-9.59,63.55-8.92l27.67,3.92Z"/>
  <path class="cls-1" d="M482.12,138.12l-27.67-3.92c-14.55-.67-50.4,3.72-63.55,8.92.04-1.88,1.22-3.03,2.37-4.47,9.41-11.88,41.64-45.62,55.72-51.33,7.93-3.22,17.02-2.91,23.08,2.93,8.1,7.8,8.42,36.58,10.06,47.87Z"/>
  <path class="cls-4" d="M287.26,472.27c-19.12,18.56-13.39,29.58,15.36,31.59,35.74,2.49,75.32-8.69,98.24-32.95,7.71-8.16,11.19-11.53.26-18.23-32.44-19.88-89.3-4.24-113.85,19.59Z"/>
  <path class="cls-5" d="M287.26,472.27c24.54-23.83,81.41-39.47,113.85-19.59,10.94,6.7,7.46,10.07-.26,18.23-22.91,24.26-62.49,35.44-98.24,32.95-28.74-2-34.48-13.02-15.36-31.59Z"/>
</svg>