<?xml version="1.0" encoding="UTF-8"?>
<svg id="Layer_1" data-name="Layer 1" xmlns="http://www.w3.org/2000/svg" viewBox="0 0 652.19 923.52">
  <defs>
    <style>
      .cls-1 {
        fill: #ff5050;
      }

      .cls-2 {
        fill: #0d68a9;
      }

      .cls-3 {
        fill: #ffe45c;
      }
    </style>
  </defs>
  <path class="cls-1" d="M582.97,759.75c-1.01-13.62-4.83-31.01-7.42-44.8-12.69-67.65-32.33-136.33-50.14-203.24-8.79-33.06-16.04-66.75-27.14-99.39-4.71-13.86-14.23-41.5-23.74-52.75-15.55-18.42-81.45-33.74-108.13-39.69-44.01-9.82-97.44-18.82-142.93-20.31-4.68-.16-12.69-.51-16.98-.04-2.29.25-.8,2.07-5.35,2.08-.94,5.72-11.75,14.71-14.87,19.87-19.01,31.48-73.42,96.68-70.58,119.82,3.89,31.7,68.56,36.89,119.19,30.01,8.22-1.12,179.32-33.77,177.02,39.66-.9,28.82-9.35,48.42-46.57,49.08-30.74.55-56.37-15.96-84.7-22.6-14.79-3.47-35.65-4.21-41.31,10.19-5.87,14.91.01,38.27.41,54.22.13,5.46-1.14,10.82-1.24,16.03-.25,15.13.65,41.11-4.83,55.46,5.51.47,5.04,6.15,4.88,9.53-.78,16.08-5.33,35.47-7.27,51.94-1.34,11.32-.52,27.71-4.15,38.57-.34,1.01-3.64,4.18-5.51,3.89.83,1.05,1.37,3.68,4.19,4.07,35.03,2.98,70.74,1.77,105.93,1.89,12.62.05,25.92.06,38.57.08,37.41.06,74.87.2,112.22,0-2.88-22.03-4.21-44.22-8.51-66.1-5.47-27.8-18.44-53.99-17.03-82.65.65-13.29,25.59-13.32,24.94,0-.38,7.69.36,15.19,1.73,22.6.49,2.25.96,4.5,1.42,6.75,3.86,16.61,10.18,32.87,13.36,49.75,4.35,23.07,5.55,46.44,8.89,69.59,12.61,0,25.19.37,37.68.1,9.42-.2,19.85-1.66,29.55-1.53,10.44-3.9,9.03-13.87,8.41-22.08ZM241.54,407.82c-24.56,4.6-19.8-32.32-4.86-37.99,3.91-1.48,10.29-1.8,13.8.54,10.35,6.93,5.62,34.73-8.94,37.45ZM318.13,415.6c-21.22-1.29-11.53-42.11,2.64-44.81,29.8-5.67,22.45,46.34-2.64,44.81Z"/>
  <path class="cls-1" d="M209.21,739.37c.37-6,.84-11.98,1.72-17.88-.62-7.16-1.16-14.31-1.2-21.48,0-1.57.65-2.79,1.67-3.65-.21-4.69-.56-9.3-1.2-13.75-.26-1.82.65-3.23-2.67-3.64-.47.87-3.23,2.55-3.38,4.61-6.04,1.29-26.88-16.25-26.07-22.68-.55,4.33-.8,11.63-8.91,9.88-1.08-.23-3.62-1.8-4.04-2.65-.38-18.12,4.2-39.35-8.09-55.47-14.33-18.8-53.29-8.69-47.17,8.89,2.25,6.48,15.16,7.94,21.24,10.6,4.49,1.97,12.92,6.58,7.08,11.05-7.55,5.76-21.74-5.44-23.24-3.65.94,4.74,14.48,28.07,1.88,26.71-5.42-.59-7.87-6.59-9.49-10.41-7.87,3.18-16.44,7.1-25.61,6.28-10.58-.95-29.08-23.08-13.36-26.12,11.74-2.27,7.75,14.68,19.94,13.56,16.26-1.49,7.35-19.91.81-26.83-2.75-2.89-14.47-11.64-18.34-12.77-6.84-2-17.35.19-14.37-10.68-9.25,2.45-11.8,14.3-11.23,21.52,2.03,26.24,23.16,60.62,54.51,69.83,14.42,34.3,51.89,71.37,97.8,73.46,3.68-8.28,8.31-16.42,11.73-24.74Z"/>
  <path class="cls-3" d="M231.24,242.64c14.53-24.54,39.22-79.72,82.28-58.78,9.39,4.56,31.42,27.08,37.61,27.83,4.65.56,19.92-6.76,25.88-8.48,23.6-6.8,53.92-7.9,70.33,10.52,13.12,14.72,13.74,53.94,15.13,72.88-2.48.14-4.83.11-7.25-.47-7.88-1.9-20.71-8.7-29.27-11.7-59.95-21.01-129.22-35.79-194.72-31.8Z"/>
  <path class="cls-3" d="M218,265.63c.1.06-.46,1.76.78,2.02,9,1.87,25.55,1.8,35.8,3.11,73.28,9.32,139.4,24.94,209.11,44.85,16.76,4.79,30.71,8.18,46.14,16.17,9.38,4.86,28.79,14.96,17.32,25.5-8.7,8-40.68,5.25-52.63,2.3-15.55-18.42-81.45-33.73-108.13-39.69-44-9.82-97.43-18.82-142.93-20.31-4.67-.15-12.69-.5-16.98-.03-2.3.25-.8,2.07-5.35,2.07-9.47.02-43.69-11.32-52.07-16.03-8.16-4.57-14.14-16.06-2.35-19.64,14.86-4.51,51.86-1.36,68.55.28,1.29.13,2.63-.66,2.74-.59Z"/>
  <path class="cls-2" d="M462.48,286.61c.71,9.58.78,19.37,1.2,28.98-69.7-19.9-135.82-35.53-209.11-44.85-10.25-1.3-26.81-1.24-35.8-3.11-1.24-.26-.68-1.95-.78-2.02,3.05-8.19,8.75-15.39,13.25-22.98,65.5-3.99,134.77,10.79,194.72,31.8,8.56,3,21.39,9.8,29.27,11.7,2.42.58,4.77.61,7.25.47Z"/>
  <path class="cls-1" d="M145.04,590.6c-4.74-.74-14.42,1.35-18.29.08-1.43-.47-7.52-8.49-9.8-10.54-7.02-6.36-20.59-13.74-31.39-13.34-4.32.16-5.46,1.28-8.6,2.17-6.65-24.15-20.1-47.24-20.98-72.33,8.07-17.62,23.5-13.93,35.45-1.8,16.94,17.18,32.86,49.67,43.14,70.67,4,8.15,8.19,16.49,10.47,25.09Z"/>
  <path class="cls-1" d="M102.23,602.31l-5.92,9.5c-12.2-9.81-20.76-16.52-38.72-12.67,4.21-11.98-.32-21.38,14.82-28.5l-.78,2.13,1.77-.24.19-2.06c.32-.15.82-.04,1.19-.17-.29,9,8.07,6.65,15.11,8.57,5.28,1.43,13.24,6.17,16.63,9.86,7.05,7.67.61,7.23-4.3,13.59Z"/>
  <path class="cls-1" d="M73.6,570.46l-.19,2.06-1.77.24.78-2.13c.32-.15.84-.02,1.19-.17Z"/>
  <path class="cls-2" d="M369.31,541.49c-11.77,2.59-32.17.29-43.63-3.26-1.37-.43-9.18-3.27-9.46-3.63-5.35-7.12,14.12-22.49,21.09-25.65,13.34-6.04,49.28-7.76,58.02,4.46,7.91,11.05-14.49,25.55-26.02,28.08Z"/>
</svg>