<svg width="205" height="464" viewBox="0 0 205 464" fill="none" xmlns="http://www.w3.org/2000/svg">
<path d="M88.8928 148.294L0.505357 128.343L96.2044 272.122L35.3476 262.504L35.0196 265.269C90.5285 329.61 144.016 395.774 199.463 460.163C201.178 462.162 199.96 464.693 204.341 462.848L131.421 318.452C130.64 316.077 130.754 315.087 133.442 315.405C142.513 316.463 160.841 323.716 168.512 323.428C171.437 323.318 171.242 322.934 170.599 320.259L103.028 185.86C128.493 187.151 156.683 194.417 181.987 194.094C184.574 194.065 186.544 195.541 185.184 191.484L21.4156 0.191083L88.8758 148.297L88.8928 148.294Z" fill="#FFE45C"/>
</svg>
