<svg width="144" height="362" viewBox="0 0 144 362" fill="none" xmlns="http://www.w3.org/2000/svg">
<path d="M61.9109 183.057L12.8723 172.568L65.9675 248.16L32.2033 243.103L32.0213 244.557C62.8184 278.384 92.4938 313.17 123.257 347.022C124.208 348.073 123.532 349.404 125.963 348.434L85.5059 272.518C85.0728 271.269 85.1362 270.749 86.6274 270.916C91.6599 271.472 101.828 275.285 106.085 275.134C107.708 275.076 107.599 274.874 107.243 273.468L69.7534 202.808C83.8816 203.486 99.5221 207.306 113.561 207.137C114.996 207.122 116.089 207.898 115.334 205.765L24.4736 105.193L61.9015 183.059L61.9109 183.057Z" fill="#FFE45C"/>
<path opacity="0.5" d="M33.321 5.83035L42.9676 25.4413L65.7946 24.9421L45.0994 34.0833L45.6262 55.7144L35.9796 36.1034L13.1526 36.6027L33.8478 27.4614L33.321 5.83035Z" fill="#FFE45C"/>
</svg>
