<svg width="1321" height="650" viewBox="0 0 1321 650" fill="none" xmlns="http://www.w3.org/2000/svg">
<path d="M275.72 84.6709C274.606 85.458 271.324 84.6709 269.869 84.1363C261.299 81.0471 231.73 39.641 231.373 30.4479C231.151 24.8637 236.646 19.1013 242.349 19.4726C253.651 20.2003 269.408 55.9629 272.928 66.2104C274.963 72.1659 278.69 78.7748 275.72 84.6709Z" fill="#0D68A9"/>
<path d="M347.245 78.7897C346.785 78.4778 344.052 69.8342 343.666 68.2451C340.384 54.8193 334.948 15.4033 341.394 4.027C345.597 -3.38393 356.81 0.492329 358.741 7.13097C360.166 12.0171 359.483 34.5618 359.112 41.0519C358.77 46.9777 355.518 75.7451 351.686 78.1808C350.557 78.8937 348.122 79.3541 347.26 78.7897H347.245Z" fill="#0D68A9"/>
<path d="M159.641 83.5418C166.725 82.1606 188.616 97.6656 194.883 102.671C198.819 105.819 225.879 127.785 209.735 129.374C203.275 130.012 159.329 107.468 154.205 101.765C148.294 95.2002 150.982 85.2349 159.641 83.5418Z" fill="#0D68A9"/>
<path d="M431.944 90.5965C425.023 85.9629 442.34 39.0023 448.592 33.2844C454.845 27.5666 465.122 31.1309 465.954 39.6409C466.785 48.1508 449.038 77.245 442.815 84.6708C439.83 88.2351 437.275 91.9777 431.944 90.5965Z" fill="#0D68A9"/>
<path d="M1026.96 565.564C1047.38 556.416 1112.86 562.579 1139.43 563.084C1195.74 564.138 1252.03 565.698 1308.48 566.307C1315.43 568.163 1316.44 573.718 1317.02 580.044C1318.24 593.233 1318.61 625.312 1317.02 638.084C1316.53 642.035 1314.23 646.728 1310 647.337L1088.93 647.619C1086.44 647.47 1083.94 648.852 1081.57 648.867C1074.2 648.911 1066.76 649.208 1059.36 649.238C910.089 649.951 760.772 648.555 611.529 649.164C609.123 646.817 618.583 635.975 620.469 633.614C632.87 618.109 649.192 603.168 662.781 588.302C672.346 577.832 679.059 562.564 694.341 560.455C715.475 557.529 745.965 560.277 768.302 560.114C820.965 559.728 874.386 558.48 927.094 563.069C940.966 564.272 955.981 568.297 970.119 569.054C978.599 569.5 1021.1 568.223 1026.96 565.594V565.564Z" fill="#FF9C39"/>
<path d="M304.087 563.025C305.839 564.495 296.646 572.812 295.205 574.178C287.186 581.737 251.007 608.47 249.403 616.089C247.19 626.589 258.27 628.832 266.245 629.842C311.898 635.619 358.31 635.337 404.334 640.267C415.622 641.47 426.419 645.124 438.508 645.896C441.627 646.104 448.83 642.347 451.132 647.664C304.799 647.664 158.645 650.114 12.209 649.238C7.12979 649.401 2.67432 647.441 1.4565 642.168C2.8971 620.649 -1.63263 593.693 1.27828 572.827C2.06541 567.228 4.04067 563.292 9.95158 562.193L288.582 561.48L304.101 563.039L304.087 563.025Z" fill="#FF9C39"/>
<path d="M541.325 80.5714C549.078 79.1308 554.469 86.9576 551.751 93.9972C548.38 102.7 523.414 118.71 514.503 123.671C510.003 126.181 494.483 135.997 494.231 125.676C494.038 117.879 532.964 82.1309 541.325 80.5714Z" fill="#0D68A9"/>
<path d="M427.161 546.895C427.414 547.044 428.32 549.955 429.493 551.173C436.815 558.762 450.731 572.752 461.112 574.549C489.107 579.391 490.904 553.965 510.924 546.376C538.578 535.89 531.018 569.618 557.424 573.301C583.875 576.985 592.919 558.821 610.682 558.524C614.573 558.465 618.628 561.524 623.321 558.524C624.241 548.915 610.132 542.93 602.231 544.029C591.494 545.529 566.647 568.282 557.944 557.544C551.87 550.059 554.885 542.202 542.796 534.48C524.558 522.821 500.32 529.831 484.548 542.306C481.889 544.4 470.587 557.93 467.454 555.643C465.716 549.881 464.186 543.821 461.765 538.296C458.795 531.539 442.34 508.697 451.132 504.346C468.166 505.831 485.32 504.702 502.414 505.088C557.84 506.351 616.415 507.821 671.722 511.029C676.519 511.311 691.504 511.861 691.816 516.316C691.712 519.821 689.232 522.554 687.212 525.153C668.068 549.732 641.321 578.901 619.697 601.698C611.528 610.312 590.187 634.193 579.449 635.693C490.86 627.896 402.24 623.292 313.74 615.019C308.794 614.559 294.685 613.727 291.611 611.901C290.705 611.366 288.552 610.133 289.948 609.079C316.146 587.886 343.978 568.579 372.344 550.326C388.339 545.291 391.443 574.103 411.716 558.539C415.132 555.91 423.181 544.579 427.161 546.91V546.895ZM372.419 603.109C394.057 594.628 416.795 608.247 438.686 610.356C451.236 611.559 467.023 610.742 478.889 606.361C487.592 603.153 494.647 594.985 502.28 592.623C508.459 590.722 530.825 593.039 520.815 583.178C512.825 575.306 502.904 577.534 493.681 581.054C477.3 587.306 473.439 597.554 453.359 598.638C445.325 599.069 437.914 597.851 430.043 596.752C413.424 594.42 376.087 578.707 372.448 603.123L372.419 603.109Z" fill="#FFE45C"/>
<path d="M27.8477 533.321C19.8724 531.999 11.8377 536.083 4.45649 532.95C1.61984 530.484 2.28816 501.301 2.54064 495.39C4.32283 453.182 16.2041 393.464 55.0409 369.672C61.13 365.944 95.3628 349.577 96.0609 363.181C96.1797 365.454 90.9371 384.226 89.4668 386.276C86.4519 390.434 74.6449 394.281 69.5657 397.563C31.5309 422.053 31.3972 493.177 27.8625 533.336L27.8477 533.321Z" fill="#FF9C39"/>
<path d="M82.7836 417.478C79.8727 455.29 73.2043 492.627 75.1647 530.885C73.6202 535.608 57.6102 532.4 53.0805 533.321C53.2141 503.959 53.3924 470.068 63.8181 442.31C64.8875 439.459 77.734 411.879 82.7836 417.478Z" fill="#FF9C39"/>
<path d="M489.731 485.782H476.35C475.711 483.272 477.582 469.43 480.063 469.475C484.741 474.183 490.756 478.163 489.716 485.782H489.731Z" fill="#FFE45C"/>
<path d="M443.825 479.722C442.176 468.509 435.612 465.375 426.879 460.281C424.369 458.811 420.82 458.766 418.488 456.791C412.948 452.098 411.835 433.533 399.73 432.33C390.374 431.395 374.349 446.098 379.829 456.078C363.166 458.306 357.166 471.227 339.344 469.073C318.27 466.533 292.547 446.781 280.562 429.85C275.468 422.662 268.369 401.795 257.482 403.994C251.245 415.31 259.547 434.261 265.755 444.657C279.745 468.078 319.71 495.063 347.928 491.766C359.409 490.43 374.082 478.533 386.587 475.489C406.8 470.573 424.83 472.652 430.384 495.316C422.914 503.053 414.686 494.826 405.82 494.588C400.443 494.454 396.641 496.489 391.711 497.692C390.567 499.162 400.369 509.647 401.839 512.053C405.656 518.276 412.503 529.801 404.127 534.598C398.171 535.682 384.062 514.519 369.463 520.727C367.072 521.752 363.329 528.301 361.295 528.45C360.522 528.509 350.26 524.781 346.399 524.44C333.478 523.266 321.656 524.752 308.037 522.702C264.492 516.108 226.561 481.236 212.363 440.157C209.17 430.89 203.809 397.949 197.735 393.894C184.71 385.221 186.284 415.949 186.937 422.513C190.071 453.717 208.74 489.004 232.012 509.618C242.824 519.197 255.789 524.766 265.472 534.806L106.546 532.608C102.937 529.771 102.447 525.034 102.061 520.756C90.2687 393.137 183.343 138.121 334.488 129.299C406.414 125.096 473.067 159.433 501.419 226.844C522.315 276.567 514.771 327.582 448.518 309.449C407.929 298.34 378.879 272.127 333.968 296.602C298.978 315.671 259.443 397.385 313.339 414.924C340.8 423.865 355.399 410.053 379.265 407.246C388.696 406.132 399.077 407.9 408.627 406.904C439.369 403.697 449.869 379.34 455.186 352.474C455.884 348.954 454.919 344.855 456.33 341.751C458.869 336.167 464.661 340.072 466.726 344.706C473.023 358.785 466.473 406.593 464.275 423.969C462.701 436.355 460.31 462.241 456.701 472.83C455.231 477.182 448.34 480.88 443.825 479.736V479.722ZM354.255 148.978C343.057 149.676 308.75 175.131 321.106 185.973C325.933 190.205 341.394 170.349 347.304 167.379C351.552 165.24 358.354 165.24 361.22 162.002C366.626 155.898 361.755 148.532 354.255 148.992V148.978ZM408.047 163.488C414.136 164.215 442.414 179.646 445.057 171.478C445.577 155.705 410.795 145.487 408.047 163.488ZM452.097 199.666C427.518 176.304 417.047 242.765 441.805 247.919C462.612 252.24 464.944 211.889 452.097 199.666ZM358.621 197.958C344.097 202.324 344.765 244.681 361.161 251.245C379.31 258.508 384.121 228.79 380.943 216.582C378.701 207.953 368.691 194.928 358.607 197.958H358.621Z" fill="#FFE45C"/>
<path d="M336.374 345.063C366.522 339.85 399.181 376.756 360.047 392.498C346.799 397.83 320.78 401.989 311.512 388.518C300.968 373.206 320.082 347.884 336.374 345.063Z" fill="#FF9C39"/>
<path d="M1239.73 384.791C1247.2 383.499 1250.72 391.147 1253.86 396.657C1277.5 438.212 1263.88 491.99 1258.71 536.722C1256.74 543.346 1236.91 539.841 1233.04 536.307C1232.56 514.029 1236.96 491.232 1238.29 468.777C1238.87 459.034 1239.45 448.727 1239.78 439.073C1240.39 421.029 1239.2 402.836 1239.72 384.806L1239.73 384.791Z" fill="#FF9C39"/>
<path d="M1313.99 540.747H1290.97C1290.44 540.747 1288.57 539.232 1287.5 539.009L1293.26 471.747C1296.05 421.949 1276.37 374.335 1237.91 342.82L1230.1 291.226C1234.06 292.771 1237.61 297.063 1240.49 300.137C1274.22 336.078 1308.68 379.519 1318 429.063C1325 466.222 1318.11 503.677 1313.98 540.762L1313.99 540.747Z" fill="#FF9C39"/>
<path d="M817.475 425.929C812.96 431.766 804.316 437.766 800.856 445.682C796.787 454.964 799.698 461.633 799.46 470.959C777.717 488.662 741.806 479.098 730.044 454.147C708.791 409.073 757.92 370.028 800.188 391.429C811.312 397.073 827.114 413.484 817.475 425.929ZM764.084 405.939C740.455 410.781 736.549 454.86 765.346 458.93C809.099 465.108 810.376 396.464 764.084 405.939Z" fill="#FFE45C"/>
<path d="M1083.81 530.38C1096.45 524.678 1123.89 501.494 1122.44 486.583C1122.17 483.865 1118.38 480.034 1115.65 479.781C1110.67 479.336 1092.91 500.499 1087.46 505.059C1043.65 541.668 982.164 550.772 927.852 535.549C918.243 532.861 892.757 521.173 885.465 521.351C881.782 521.44 870.035 530.054 863.143 531.747C851.53 534.598 832.193 535.385 834.495 518.677C836.544 517.846 842.455 516.479 841.698 513.301C840.762 509.351 816.331 505.504 814.965 490.846C813.599 476.187 842.188 475.029 843.153 471.628C846.331 460.459 812.396 467.44 821.099 451.088C831.421 431.722 857.5 441.746 869.381 453.643C879.629 463.89 882.228 480.286 894.658 488.514C937.357 516.791 1017.87 508.831 1056.26 475.356C1075.77 458.336 1106.32 408.182 1107.59 382.504C1108.08 372.598 1099.28 366.672 1092.93 375.375C1085.68 385.296 1079.56 406.548 1072.67 418.979C1046.23 466.652 1014.23 486.821 958.223 482.87C950.649 482.336 924.941 479.529 923.396 471.628L926.411 428.662L924.866 375.88C947.381 387.004 964.802 384.434 986.203 372.612C1036.56 344.796 1067.6 282.196 1063.03 225.077C1061.77 209.245 1051.15 183.315 1032.48 182.735C1014.5 182.171 991.268 217.028 977.619 228.879C942.792 259.117 885.97 269.35 840.925 273.374C813.628 275.81 736.059 282.285 754.385 232.874C765.257 203.602 852.673 128.037 880.713 108.21C943.282 63.9675 1032.81 31.309 1102.06 80.6013C1210.45 157.74 1225.82 391.682 1208.5 511.742C1207.8 516.539 1206.53 530.039 1204.79 533.277C1200.91 540.494 1185.59 536.291 1179.63 536.202C1148.17 535.772 1116.51 535.489 1085.23 534.049L1083.78 530.336L1083.81 530.38ZM934.327 143.26C925.015 152.364 916.045 193.339 932.975 191.81C944.337 190.785 939.525 148.176 966.317 161.438C971.025 163.77 985.476 181.636 989.545 175.443C995.322 148.339 954.466 123.582 934.327 143.245V143.26ZM869.53 153.463C856.742 155.795 849.168 172.013 847.817 183.716C847.059 190.25 846.376 204.582 856.564 198.404C864.837 193.384 861.911 172.25 882.406 180.003C889.564 182.706 903.658 201.434 907.951 187.31C912.673 171.82 885.168 150.612 869.53 153.463Z" fill="#FFE45C"/>
<path d="M1033.3 274.904C1035.05 292.905 1000.1 344.514 983.545 344.588C978.273 344.618 974.634 337.845 974.218 333.226C972.332 311.721 1008.88 269.187 1033.3 274.904Z" fill="#FF9C39"/>
</svg>
